<svg width="50" height="50" viewBox="0 0 50 50" fill="none" xmlns="http://www.w3.org/2000/svg">
<path d="M14.5827 10.4168V4.16683C14.5827 3.6143 14.8022 3.08439 15.1929 2.69369C15.5836 2.30299 16.1135 2.0835 16.666 2.0835H33.3327C33.8852 2.0835 34.4151 2.30299 34.8058 2.69369C35.1965 3.08439 35.416 3.6143 35.416 4.16683V10.4168H43.7493C44.3019 10.4168 44.8318 10.6363 45.2225 11.027C45.6132 11.4177 45.8327 11.9476 45.8327 12.5002V41.6668C45.8327 42.2194 45.6132 42.7493 45.2225 43.14C44.8318 43.5307 44.3019 43.7502 43.7493 43.7502H6.24935C5.69681 43.7502 5.16691 43.5307 4.77621 43.14C4.38551 42.7493 4.16602 42.2194 4.16602 41.6668V12.5002C4.16602 11.9476 4.38551 11.4177 4.77621 11.027C5.16691 10.6363 5.69681 10.4168 6.24935 10.4168H14.5827ZM5.99951 32V42H43.9995V32H5.99951ZM5.99951 30.5H43.9995V12H5.99951V30.5ZM15.9995 4V10.4168H33.9995V4H15.9995ZM22.916 22.9168H27.0827V27.0835H22.916V22.9168Z" fill="#272B29"/>
</svg>
