<svg width="50" height="50" viewBox="0 0 50 50" fill="none" xmlns="http://www.w3.org/2000/svg">
<g clip-path="url(#clip0_324_2172)">
<path d="M6.5 24.9998C6.5 13.4936 13.4933 7 24.9995 7C36.5057 7 43.0001 13.4936 43.0001 24.9998C43.0001 36.5061 36.5057 43 24.9995 43H8.49999L13.2141 39.7311C11.2767 37.7987 9.38017 35.5038 8.33297 32.9757C7.28577 30.4476 6.49651 27.7362 6.5 24.9998ZM14.0001 41.6665H24.9995C28.2959 41.6665 32.7592 40.8314 35.5 39C38.2408 37.1686 39.2385 35.0454 40.5 32C41.7614 28.9546 41.989 24.9813 41.3459 21.7483C40.7028 18.5153 39.8309 15.3309 37.5 13C35.1691 10.6691 31.484 9.2965 28.251 8.65342C25.018 8.01033 21.0454 8.23854 18 9.5C14.9546 10.7615 12.3313 12.2592 10.5 15C8.66863 17.7408 8.33284 21.7035 8.33284 24.9998C8.33284 29.4832 9.49999 33 12.5 36.5L16 39.7311L14.0001 41.6665ZM16.6662 27.0832H33.3328C33.3328 29.2933 32.4549 31.4129 30.8921 32.9757C29.3293 34.5385 27.2096 35.4165 24.9995 35.4165C22.7894 35.4165 20.6698 34.5385 19.1069 32.9757C17.5441 31.4129 16.6662 29.2933 16.6662 27.0832Z" fill="#272B29"/>
</g>
<defs>
<clipPath id="clip0_324_2172">
<rect width="50" height="50" fill="white"/>
</clipPath>
</defs>
</svg>
