<svg width="17" height="17" viewBox="0 0 17 17" fill="none" xmlns="http://www.w3.org/2000/svg">
<path d="M10.1137 14.5552H14.5582V2.11079H2.11372V14.5552H8.33594V10.1108H6.55816V8.33301H8.33594V6.86278C8.33594 5.67434 8.46038 5.24323 8.69149 4.80856C8.91915 4.37851 9.27101 4.02695 9.70127 3.79967C10.0408 3.61745 10.463 3.50812 11.2008 3.46101C11.4933 3.44234 11.8719 3.46545 12.3368 3.53212V5.22101H11.8915C11.0764 5.22101 10.7395 5.25923 10.5386 5.36679C10.4187 5.42844 10.3211 5.52603 10.2595 5.6459C10.1528 5.84679 10.1137 6.0459 10.1137 6.8619V8.33301H12.3359L11.8915 10.1108H10.1137V14.5552ZM1.22483 0.333008H15.447C15.6828 0.333008 15.9089 0.426658 16.0756 0.593357C16.2423 0.760056 16.3359 0.986149 16.3359 1.2219V15.4441C16.3359 15.6799 16.2423 15.906 16.0756 16.0727C15.9089 16.2394 15.6828 16.333 15.447 16.333H1.22483C0.989078 16.333 0.762986 16.2394 0.596287 16.0727C0.429588 15.906 0.335938 15.6799 0.335938 15.4441V1.2219C0.335938 0.986149 0.429588 0.760056 0.596287 0.593357C0.762986 0.426658 0.989078 0.333008 1.22483 0.333008Z" fill="#272B29"/>
</svg>
