<svg width="17" height="17" viewBox="0 0 17 17" fill="none" xmlns="http://www.w3.org/2000/svg">
<path d="M8.33203 5.93301C7.69551 5.93301 7.08506 6.18586 6.63497 6.63595C6.18489 7.08604 5.93203 7.69649 5.93203 8.33301C5.93203 8.96953 6.18489 9.57998 6.63497 10.0301C7.08506 10.4802 7.69551 10.733 8.33203 10.733C8.96855 10.733 9.579 10.4802 10.0291 10.0301C10.4792 9.57998 10.732 8.96953 10.732 8.33301C10.732 7.69649 10.4792 7.08604 10.0291 6.63595C9.579 6.18586 8.96855 5.93301 8.33203 5.93301ZM8.33203 4.33301C9.3929 4.33301 10.4103 4.75444 11.1605 5.50458C11.9106 6.25473 12.332 7.27214 12.332 8.33301C12.332 9.39387 11.9106 10.4113 11.1605 11.1614C10.4103 11.9116 9.3929 12.333 8.33203 12.333C7.27116 12.333 6.25375 11.9116 5.5036 11.1614C4.75346 10.4113 4.33203 9.39387 4.33203 8.33301C4.33203 7.27214 4.75346 6.25473 5.5036 5.50458C6.25375 4.75444 7.27116 4.33301 8.33203 4.33301ZM13.532 4.13301C13.532 4.39822 13.4267 4.65258 13.2391 4.84011C13.0516 5.02765 12.7972 5.13301 12.532 5.13301C12.2668 5.13301 12.0125 5.02765 11.8249 4.84011C11.6374 4.65258 11.532 4.39822 11.532 4.13301C11.532 3.86779 11.6374 3.61344 11.8249 3.4259C12.0125 3.23836 12.2668 3.13301 12.532 3.13301C12.7972 3.13301 13.0516 3.23836 13.2391 3.4259C13.4267 3.61344 13.532 3.86779 13.532 4.13301ZM8.33203 1.93301C6.35283 1.93301 6.02963 1.93861 5.10883 1.97941C4.48163 2.00901 4.06083 2.09301 3.67043 2.24501C3.32323 2.37941 3.07283 2.54021 2.80643 2.80741C2.55604 3.04933 2.36351 3.34467 2.24323 3.67141C2.09123 4.06341 2.00723 4.48341 1.97843 5.10981C1.93683 5.99301 1.93203 6.30181 1.93203 8.33301C1.93203 10.3122 1.93763 10.6354 1.97843 11.5562C2.00803 12.1826 2.09203 12.6042 2.24323 12.9938C2.37923 13.3418 2.53923 13.5922 2.80483 13.8578C3.07443 14.1266 3.32483 14.2874 3.66883 14.4202C4.06403 14.573 4.48483 14.6578 5.10883 14.6866C5.99203 14.7282 6.30083 14.733 8.33203 14.733C10.3112 14.733 10.6344 14.7274 11.5552 14.6866C12.1808 14.657 12.6024 14.573 12.9928 14.4218C13.3392 14.2866 13.5912 14.1258 13.8568 13.8602C14.1264 13.5906 14.2872 13.3402 14.42 12.9962C14.572 12.6018 14.6568 12.1802 14.6856 11.5562C14.7272 10.673 14.732 10.3642 14.732 8.33301C14.732 6.35381 14.7264 6.03061 14.6856 5.10981C14.656 4.48421 14.572 4.06181 14.42 3.67141C14.2995 3.34501 14.1073 3.04978 13.8576 2.80741C13.6158 2.55688 13.3204 2.36434 12.9936 2.24421C12.6016 2.09221 12.1808 2.00821 11.5552 1.97941C10.672 1.93781 10.3632 1.93301 8.33203 1.93301ZM8.33203 0.333008C10.5056 0.333008 10.7768 0.341008 11.6296 0.381008C12.4816 0.421008 13.0616 0.554608 13.572 0.753008C14.1 0.956208 14.5448 1.23141 14.9896 1.67541C15.3964 2.07532 15.7112 2.55908 15.912 3.09301C16.1096 3.60261 16.244 4.18341 16.284 5.03541C16.3216 5.88821 16.332 6.15941 16.332 8.33301C16.332 10.5066 16.324 10.7778 16.284 11.6306C16.244 12.4826 16.1096 13.0626 15.912 13.573C15.7118 14.1072 15.3969 14.5911 14.9896 14.9906C14.5896 15.3973 14.1059 15.712 13.572 15.913C13.0624 16.1106 12.4816 16.245 11.6296 16.285C10.7768 16.3226 10.5056 16.333 8.33203 16.333C6.15843 16.333 5.88723 16.325 5.03443 16.285C4.18243 16.245 3.60243 16.1106 3.09203 15.913C2.55789 15.7126 2.07405 15.3978 1.67443 14.9906C1.26756 14.5908 0.952776 14.107 0.752031 13.573C0.553631 13.0634 0.420031 12.4826 0.380031 11.6306C0.342431 10.7778 0.332031 10.5066 0.332031 8.33301C0.332031 6.15941 0.340031 5.88821 0.380031 5.03541C0.420031 4.18261 0.553631 3.60341 0.752031 3.09301C0.95222 2.55875 1.26707 2.07486 1.67443 1.67541C2.07417 1.26839 2.55797 0.953591 3.09203 0.753008C3.60243 0.554608 4.18163 0.421008 5.03443 0.381008C5.88723 0.343408 6.15843 0.333008 8.33203 0.333008Z" fill="#272B29"/>
</svg>
