<svg width="50" height="50" viewBox="0 0 50 50" fill="none" xmlns="http://www.w3.org/2000/svg">
<g clip-path="url(#clip0_324_2169)">
<path d="M35.4167 36H42V6H16V12.4998H35.4167V36ZM35.4167 37.4998V43.7498C35.4167 44.8998 34.4792 45.8332 33.3187 45.8332H8.34792C8.07318 45.8348 7.80083 45.7822 7.5465 45.6782C7.29218 45.5743 7.0609 45.4211 6.86596 45.2275C6.67101 45.0339 6.51624 44.8037 6.41053 44.5501C6.30482 44.2966 6.25027 44.0246 6.25 43.7498L6.25625 14.5832C6.25625 13.4332 7.19375 12.4998 8.35417 12.4998H14.5833V6.24984C14.5833 5.6973 14.8028 5.1674 15.1935 4.7767C15.5842 4.386 16.1141 4.1665 16.6667 4.1665H41.6667C42.2192 4.1665 42.7491 4.386 43.1398 4.7767C43.5305 5.1674 43.75 5.6973 43.75 6.24984V35.4165C43.75 35.969 43.5305 36.4989 43.1398 36.8896C42.7491 37.2803 42.2192 37.4998 41.6667 37.4998H35.4167ZM8 14V44H34V14H8ZM14.5833 33.3332H23.9583C24.2346 33.3332 24.4995 33.2234 24.6949 33.0281C24.8903 32.8327 25 32.5678 25 32.2915C25 32.0152 24.8903 31.7503 24.6949 31.5549C24.4995 31.3596 24.2346 31.2498 23.9583 31.2498H17.7083C16.327 31.2498 15.0022 30.7011 14.0255 29.7243C13.0487 28.7476 12.5 27.4228 12.5 26.0415C12.5 24.6602 13.0487 23.3354 14.0255 22.3587C15.0022 21.3819 16.327 20.8332 17.7083 20.8332H18.75V18.7498H22.9167V20.8332H27.0833V24.9998H17.7083C17.4321 24.9998 17.1671 25.1096 16.9718 25.3049C16.7764 25.5003 16.6667 25.7652 16.6667 26.0415C16.6667 26.3178 16.7764 26.5827 16.9718 26.7781C17.1671 26.9734 17.4321 27.0832 17.7083 27.0832H23.9583C25.3397 27.0832 26.6644 27.6319 27.6412 28.6087C28.6179 29.5854 29.1667 30.9102 29.1667 32.2915C29.1667 33.6728 28.6179 34.9976 27.6412 35.9743C26.6644 36.9511 25.3397 37.4998 23.9583 37.4998H22.9167V39.5832H18.75V37.4998H14.5833V33.3332Z" fill="#272B29"/>
</g>
<defs>
<clipPath id="clip0_324_2169">
<rect width="50" height="50" fill="white"/>
</clipPath>
</defs>
</svg>
