<svg width="450" height="430" viewBox="0 0 450 430" fill="none" xmlns="http://www.w3.org/2000/svg">
<path d="M225 430C349.264 430 450 372.693 450 302.001C450 231.309 349.264 174.002 225 174.002C100.736 174.002 0 231.309 0 302.001C0 372.693 100.736 430 225 430Z" fill="#F0F0F0"/>
<path d="M354.216 346.414C339.462 338.021 339.462 324.415 354.216 316.021C368.97 307.628 392.892 307.628 407.647 316.021C422.401 324.415 422.401 338.021 407.647 346.414C392.892 354.808 368.97 354.808 354.216 346.414Z" fill="#E0E0E0"/>
<path d="M54.1268 347.581L15.3169 325.506C13.13 324.264 13.13 322.241 15.3169 320.999L241.062 192.577C242.289 191.964 243.645 191.645 245.02 191.645C246.396 191.645 247.752 191.964 248.979 192.577L287.798 214.652C289.985 215.894 289.985 217.917 287.798 219.159L62.053 347.581C60.8245 348.194 59.4669 348.513 58.0899 348.513C56.713 348.513 55.3554 348.194 54.1268 347.581V347.581Z" fill="#E0E0E0"/>
<path d="M193.63 308.23L226.996 289.223C230.434 287.266 232.153 284.706 232.153 282.137C232.153 279.568 232.153 277.564 232.153 277.564L197.545 258.331C196.578 257.715 195.773 256.882 195.196 255.901C194.618 254.92 194.284 253.818 194.222 252.685V212.139L135.969 245.317V285.845C136.036 286.976 136.371 288.077 136.949 289.057C137.526 290.038 138.328 290.871 139.292 291.49L168.743 308.202C175.6 312.145 186.754 312.145 193.63 308.23Z" fill="#09B358"/>
<g opacity="0.6">
<path opacity="0.6" d="M193.63 308.23L226.996 289.223C230.434 287.266 232.153 284.706 232.153 282.137C232.153 279.568 232.153 277.564 232.153 277.564L197.545 258.331C196.578 257.715 195.773 256.882 195.196 255.901C194.618 254.92 194.284 253.818 194.222 252.685V212.139L135.969 245.317V285.845C136.036 286.976 136.371 288.077 136.949 289.057C137.526 290.038 138.328 290.871 139.292 291.49L168.743 308.202C175.6 312.145 186.754 312.145 193.63 308.23Z" fill="black"/>
</g>
<path opacity="0.3" d="M149.939 293.024V297.578L139.263 291.509C138.3 290.891 137.498 290.057 136.922 289.076C136.346 288.095 136.013 286.995 135.949 285.863V245.317L147.046 239.004C147.275 241.779 147.523 244.649 147.762 247.472L139.96 251.895V283.558C140.022 284.691 140.355 285.793 140.933 286.775C141.511 287.756 142.316 288.588 143.283 289.204L149.939 293.024Z" fill="black"/>
<path d="M139.96 283.568C140.026 284.7 140.361 285.8 140.938 286.781C141.515 287.762 142.319 288.595 143.283 289.213L168.705 303.648C175.58 307.553 186.734 307.562 193.62 303.648L227.043 284.64C233.929 280.726 233.929 274.384 227.043 270.469L201.603 256.035C200.641 255.415 199.84 254.582 199.264 253.601C198.689 252.62 198.355 251.52 198.289 250.389V218.717L140.036 251.895L139.96 283.568Z" fill="#09B358"/>
<path opacity="0.3" d="M139.96 283.568C140.026 284.7 140.361 285.8 140.938 286.781C141.515 287.762 142.319 288.595 143.283 289.213L168.705 303.648C175.58 307.553 186.734 307.562 193.62 303.648L227.043 284.64C233.929 280.726 233.929 274.384 227.043 270.469L201.603 256.035C200.641 255.415 199.84 254.582 199.264 253.601C198.689 252.62 198.355 251.52 198.289 250.389V218.717L140.036 251.895L139.96 283.568Z" fill="black"/>
<path opacity="0.5" d="M208.337 259.902L201.566 256.054C200.604 255.434 199.802 254.6 199.227 253.62C198.651 252.639 198.317 251.539 198.252 250.408V218.717L139.999 251.895V283.568C140.065 284.7 140.4 285.8 140.977 286.781C141.554 287.762 142.358 288.595 143.322 289.213L150.007 292.977L208.337 259.902Z" fill="black"/>
<path d="M232.162 277.574V282.147C232.162 284.716 230.434 287.266 227.006 289.232L193.582 308.23C189.924 310.154 185.839 311.153 181.692 311.138V306.583C185.839 306.599 189.924 305.6 193.582 303.676L227.006 284.659C230.434 282.711 232.162 280.142 232.162 277.574Z" fill="#09B358"/>
<path opacity="0.5" d="M232.162 277.574V282.147C232.162 284.716 230.434 287.266 227.006 289.232L193.582 308.23C189.924 310.154 185.839 311.153 181.692 311.138V306.583C185.839 306.599 189.924 305.6 193.582 303.676L227.006 284.659C230.434 282.711 232.162 280.142 232.162 277.574Z" fill="black"/>
<path d="M46.3736 322.928C47.6329 323.527 49.0175 323.827 50.4158 323.802C51.8141 323.778 53.1871 323.43 54.424 322.787L279.796 194.581C281.005 193.804 282.011 192.758 282.732 191.527C283.454 190.296 283.871 188.915 283.95 187.495V7.84702C283.907 6.46604 283.534 5.11464 282.86 3.90296C282.186 2.69128 281.231 1.6536 280.073 0.874494C278.816 0.274495 277.432 -0.0245806 276.035 0.00157975C274.637 0.0277401 273.266 0.378398 272.032 1.02505L46.6601 129.269C45.4558 130.05 44.4561 131.101 43.7425 132.336C43.0289 133.57 42.6215 134.954 42.5537 136.373V315.993C42.5963 317.363 42.964 318.703 43.6274 319.908C44.2908 321.112 45.2313 322.146 46.3736 322.928Z" fill="#09B358"/>
<path d="M54.452 322.777L279.824 194.571C281.034 193.796 282.041 192.751 282.763 191.519C283.485 190.288 283.902 188.906 283.978 187.486V7.84701C283.978 5.24054 282.116 4.17726 279.824 5.4852L54.452 133.691C53.243 134.467 52.2368 135.513 51.515 136.744C50.7932 137.976 50.3762 139.357 50.2979 140.777V320.416C50.2979 323.022 52.16 324.085 54.452 322.777Z" fill="#09B358"/>
<path opacity="0.5" d="M54.452 322.777L279.824 194.571C281.034 193.796 282.041 192.751 282.763 191.519C283.485 190.288 283.902 188.906 283.978 187.486V7.84701C283.978 5.24054 282.116 4.17726 279.824 5.4852L54.452 133.691C53.243 134.467 52.2368 135.513 51.515 136.744C50.7932 137.976 50.3762 139.357 50.2979 140.777V320.416C50.2979 323.022 52.16 324.085 54.452 322.777Z" fill="black"/>
<path d="M53.8414 327.445C52.6596 327.953 51.38 328.203 50.0907 328.177C48.8015 328.151 47.5333 327.85 46.3736 327.294C45.2287 326.511 44.2866 325.473 43.6232 324.265C42.9597 323.058 42.5934 321.713 42.5537 320.34V303.986L50.3367 308.428V324.782C50.289 327.162 51.8264 328.244 53.8414 327.445Z" fill="#09B358"/>
<path opacity="0.5" d="M53.8414 327.445C52.6596 327.953 51.38 328.203 50.0907 328.177C48.8015 328.151 47.5333 327.85 46.3736 327.294C45.2287 326.511 44.2866 325.473 43.6232 324.265C42.9597 323.058 42.5934 321.713 42.5537 320.34V303.986L50.3367 308.428V324.782C50.289 327.162 51.8264 328.244 53.8414 327.445Z" fill="black"/>
<path d="M50.2891 308.428V324.782C50.2891 327.388 52.199 328.442 54.4432 327.143L279.816 198.937C281.019 198.165 282.022 197.124 282.743 195.9C283.465 194.676 283.885 193.303 283.97 191.89V175.46L50.2891 308.428Z" fill="#09B358"/>
<path opacity="0.3" d="M50.2979 308.39V324.782C50.2979 327.388 52.2078 328.442 54.452 327.143L279.824 198.937C281.026 198.163 282.027 197.123 282.747 195.899C283.466 194.675 283.885 193.302 283.969 191.89V175.46L50.2979 308.39Z" fill="black"/>
<path d="M58.0811 287.868V143.327C58.1255 142.475 58.3736 141.646 58.8051 140.907C59.2366 140.168 59.8393 139.54 60.564 139.074L273.656 17.8118C275.031 17.0308 276.148 17.6613 276.148 19.2233V163.84C276.102 164.692 275.852 165.521 275.419 166.26C274.986 166.999 274.381 167.627 273.656 168.093L60.5735 289.326C59.1984 290.107 58.0811 289.467 58.0811 287.868Z" fill="#09B358"/>
<path d="M58.0811 287.868V143.327C58.1255 142.475 58.3736 141.646 58.8051 140.907C59.2366 140.168 59.8393 139.54 60.564 139.074L273.656 17.8118C275.031 17.0308 276.148 17.6613 276.148 19.2233V163.84C276.102 164.692 275.852 165.521 275.419 166.26C274.986 166.999 274.381 167.627 273.656 168.093L60.5735 289.326C59.1984 290.107 58.0811 289.467 58.0811 287.868Z" fill="#263238"/>
<path d="M167.13 247.152C165.995 247.879 165.051 248.86 164.374 250.014C163.697 251.169 163.306 252.464 163.233 253.796C163.233 256.242 164.981 257.24 167.13 256.016C168.265 255.288 169.21 254.306 169.887 253.15C170.564 251.994 170.955 250.697 171.026 249.364C171.026 246.917 169.278 245.929 167.13 247.152Z" fill="#09B358"/>
<path opacity="0.7" d="M51.5209 136.73C50.7808 137.956 50.3577 139.343 50.289 140.767V308.428L42.5537 303.986V136.373C42.6038 134.943 43.0246 133.551 43.7761 132.327L51.5209 136.73Z" fill="black"/>
<path opacity="0.3" d="M283.931 7.16946C283.635 5.06171 281.907 4.34658 279.815 5.48515L54.443 133.691C53.2211 134.444 52.2125 135.49 51.5113 136.73L43.7188 132.299C44.4247 131.058 45.4362 130.013 46.66 129.259L272.032 1.06263C273.268 0.415887 274.641 0.0652131 276.039 0.039055C277.438 0.0128969 278.823 0.311992 280.083 0.912073C281.142 1.62283 282.033 2.5493 282.697 3.62884C283.361 4.70837 283.782 5.91579 283.931 7.16946Z" fill="black"/>
<path d="M296.086 29.2821C295.751 29.1166 295.377 29.044 295.003 29.0722C294.63 29.1004 294.271 29.2283 293.966 29.4421L81.3135 150.487C80.4744 151.034 79.7778 151.768 79.2801 152.63C78.7824 153.491 78.4975 154.456 78.4486 155.446V299.103C78.4188 299.588 78.5165 300.072 78.7324 300.509C78.9482 300.946 79.2747 301.32 79.6805 301.596C80.1484 301.85 82.6505 303.281 83.3953 303.676C83.6589 303.808 83.9533 303.869 84.2486 303.853C84.5439 303.836 84.8294 303.743 85.0761 303.582L297.681 182.537C298.52 181.99 299.216 181.256 299.714 180.394C300.212 179.533 300.497 178.568 300.545 177.578V33.1777C300.588 32.8128 300.527 32.4434 300.368 32.111C300.21 31.7786 299.96 31.4963 299.648 31.2958C299.17 30.9853 296.621 29.5926 296.086 29.2821Z" fill="#09B358"/>
<path d="M85.029 152.52L297.691 31.5216C299.295 30.5807 300.556 31.3523 300.556 33.1777V177.578C300.507 178.568 300.222 179.533 299.724 180.394C299.226 181.256 298.53 181.99 297.691 182.537L85.029 303.582C83.4246 304.523 82.1641 303.008 82.1641 301.182V157.479C82.2145 156.489 82.5 155.525 82.9976 154.663C83.4951 153.802 84.1909 153.068 85.029 152.52V152.52Z" fill="#FAFAFA"/>
<path d="M298.99 32.0675C299.553 32.0675 299.639 32.7638 299.639 33.1778V177.578C299.587 178.407 299.341 179.213 298.918 179.931C298.495 180.65 297.908 181.262 297.204 181.718L84.5706 302.763C84.4279 302.854 84.263 302.906 84.0931 302.914C83.5583 302.914 83.1381 302.105 83.1381 301.182V157.479C83.1842 156.65 83.4236 155.843 83.8376 155.12C84.2517 154.397 84.8293 153.778 85.5255 153.31L298.168 32.331C298.414 32.1745 298.697 32.0837 298.99 32.0675V32.0675ZM298.99 31.1265C298.529 31.1458 298.082 31.282 297.691 31.5217L85.029 152.52C84.1909 153.068 83.4951 153.802 82.9976 154.663C82.5 155.525 82.2145 156.489 82.1641 157.479V301.182C82.1641 302.632 82.9853 303.855 84.074 303.855C84.4112 303.849 84.7407 303.754 85.029 303.582L297.681 182.537C298.52 181.99 299.217 181.256 299.715 180.394C300.212 179.533 300.497 178.568 300.546 177.578V33.1778C300.546 31.8793 299.897 31.1265 298.942 31.1265H298.99Z" fill="#E0E0E0"/>
<path d="M79.6235 301.596C79.9386 301.756 82.2019 303.027 83.1951 303.591C82.8384 303.3 82.556 302.93 82.3703 302.512C82.1845 302.094 82.1007 301.638 82.1255 301.182V166.86L78.4011 164.715V299.103C78.3703 299.587 78.4666 300.071 78.6807 300.507C78.8948 300.944 79.2195 301.319 79.6235 301.596V301.596Z" fill="#F0F0F0"/>
<path d="M300.594 33.1495C300.594 31.3428 299.286 30.6089 297.729 31.5216L85.029 152.52C84.1909 153.068 83.4951 153.802 82.9976 154.663C82.5 155.525 82.2145 156.489 82.1641 157.479V166.888L300.594 42.5591V33.1495Z" fill="#09B358"/>
<g opacity="0.4">
<path opacity="0.4" d="M297.69 31.5217L85.0284 152.51C84.1749 153.041 83.4718 153.776 82.9848 154.646L79.2891 152.529C79.7753 151.689 80.4724 150.986 81.3136 150.487L293.966 29.4421C294.27 29.2268 294.628 29.0973 295.002 29.0674C295.376 29.0376 295.75 29.1086 296.086 29.2728C296.602 29.5927 299.018 30.9383 299.638 31.2676C299.317 31.1503 298.972 31.1121 298.632 31.1564C298.293 31.2006 297.969 31.326 297.69 31.5217V31.5217Z" fill="white"/>
</g>
<path opacity="0.15" d="M78.4014 164.724V155.399C78.4406 154.383 78.7466 153.394 79.2895 152.529L82.9948 154.637C82.4596 155.487 82.16 156.46 82.1257 157.46V166.87L78.4014 164.724Z" fill="black"/>
<path d="M255.749 141.473L128.384 213.927C127.765 214.323 127.249 214.858 126.879 215.487C126.509 216.117 126.295 216.823 126.255 217.55V253.532C126.295 254.259 126.509 254.965 126.879 255.595C127.249 256.224 127.765 256.759 128.384 257.155L132.099 259.263C132.759 259.592 133.489 259.763 134.229 259.763C134.969 259.763 135.698 259.592 136.358 259.263L263.703 186.809C264.323 186.411 264.839 185.874 265.209 185.243C265.579 184.612 265.793 183.904 265.833 183.176V147.185C265.793 146.458 265.579 145.752 265.209 145.122C264.838 144.492 264.323 143.958 263.703 143.562L259.979 141.454C259.322 141.13 258.596 140.964 257.862 140.967C257.127 140.97 256.403 141.143 255.749 141.473Z" fill="#09B358"/>
<path opacity="0.5" d="M265.834 146.865C265.681 145.783 264.793 145.387 263.723 145.999L136.359 218.453C135.731 218.838 135.214 219.376 134.86 220.015L126.886 215.48C127.243 214.85 127.755 214.32 128.375 213.936L255.749 141.482C256.407 141.153 257.135 140.981 257.874 140.981C258.612 140.981 259.34 141.153 259.999 141.482L263.723 143.59C264.291 143.957 264.773 144.438 265.137 145.003C265.501 145.568 265.738 146.202 265.834 146.865Z" fill="white"/>
<path d="M135.996 259.441C135.372 259.684 134.704 259.794 134.034 259.764C133.364 259.735 132.708 259.567 132.109 259.272L128.384 257.164C127.766 256.767 127.251 256.232 126.881 255.603C126.511 254.974 126.297 254.268 126.255 253.541V217.559C126.284 216.825 126.5 216.109 126.885 215.48L134.859 220.015C134.472 220.637 134.254 221.347 134.229 222.076V258.068C134.229 259.263 134.993 259.818 135.996 259.441Z" fill="#263238"/>
<path d="M136.359 218.453L263.723 145.999C264.897 145.331 265.852 145.867 265.852 147.203V183.195C265.812 183.923 265.598 184.631 265.228 185.262C264.858 185.893 264.342 186.429 263.723 186.827L136.378 259.281C135.203 259.949 134.248 259.404 134.248 258.068V222.085C134.286 221.359 134.497 220.652 134.864 220.021C135.231 219.39 135.742 218.853 136.359 218.453V218.453Z" fill="#09B358"/>
<path d="M221.982 160.687L128.395 213.936C127.775 214.32 127.263 214.85 126.905 215.48L134.879 220.015C135.234 219.376 135.75 218.838 136.379 218.453L229.965 165.213L221.982 160.687Z" fill="#455A64"/>
<path d="M229.946 165.214L136.359 218.453C135.74 218.851 135.224 219.387 134.854 220.018C134.484 220.649 134.27 221.358 134.229 222.085V258.058C134.229 259.394 135.184 259.94 136.359 259.272L229.946 206.032V165.214Z" fill="#37474F"/>
<path d="M157.941 214.068L206.234 186.602C208.23 185.463 209.853 186.272 209.853 188.408C209.764 189.608 209.389 190.77 208.758 191.8C208.128 192.83 207.26 193.699 206.225 194.336L157.941 221.812C155.945 222.951 154.312 222.142 154.312 220.006C154.403 218.805 154.778 217.642 155.408 216.611C156.039 215.579 156.906 214.708 157.941 214.068V214.068Z" fill="#09B358"/>
<path d="M167.834 223.167C167.843 223.157 167.854 223.149 167.866 223.144C167.879 223.138 167.892 223.135 167.906 223.135C167.919 223.135 167.933 223.138 167.945 223.144C167.957 223.149 167.968 223.157 167.977 223.167C168.02 223.231 168.04 223.307 168.035 223.384V228.738C168.035 229.255 167.991 229.771 167.901 230.281C167.822 230.747 167.687 231.201 167.5 231.636C167.329 232.034 167.104 232.407 166.831 232.746C166.563 233.06 166.239 233.325 165.876 233.527C165.592 233.71 165.261 233.808 164.921 233.809C164.792 233.799 164.666 233.763 164.551 233.703C164.436 233.644 164.334 233.561 164.253 233.461C164.043 233.185 163.906 232.862 163.852 232.52C163.761 232.065 163.719 231.601 163.728 231.137V225.774C163.727 225.68 163.747 225.587 163.785 225.501C163.808 225.423 163.859 225.356 163.928 225.313L164.53 224.964C164.549 224.947 164.575 224.937 164.602 224.937C164.628 224.937 164.654 224.947 164.673 224.964C164.717 225.028 164.738 225.104 164.73 225.181V230.469C164.723 230.76 164.752 231.051 164.816 231.335C164.843 231.516 164.922 231.686 165.046 231.824C165.089 231.875 165.143 231.914 165.204 231.941C165.266 231.967 165.332 231.978 165.399 231.975C165.562 231.964 165.72 231.912 165.857 231.824C166.027 231.724 166.182 231.6 166.316 231.457C166.465 231.288 166.587 231.098 166.679 230.893C166.786 230.651 166.866 230.399 166.917 230.14C166.973 229.829 166.999 229.514 166.994 229.199V223.901C166.997 223.807 167.019 223.714 167.061 223.628C167.084 223.551 167.135 223.484 167.204 223.44L167.834 223.167Z" fill="#FAFAFA"/>
<path d="M171.578 228.23C171.583 228.161 171.566 228.092 171.53 228.032C171.507 228.008 171.479 227.989 171.447 227.977C171.416 227.966 171.382 227.962 171.349 227.966C171.231 227.95 171.112 227.95 170.995 227.966L170.441 228.07C170.263 228.114 170.076 228.114 169.897 228.07C169.757 228.025 169.636 227.936 169.553 227.816C169.46 227.663 169.398 227.493 169.372 227.317C169.279 226.813 169.279 226.297 169.372 225.793C169.443 225.504 169.546 225.223 169.677 224.955C169.808 224.688 169.968 224.435 170.155 224.202C170.336 223.98 170.556 223.792 170.804 223.647C171.005 223.527 171.23 223.45 171.463 223.421C171.633 223.404 171.803 223.44 171.95 223.525C172.09 223.609 172.2 223.734 172.265 223.882C172.342 224.058 172.384 224.246 172.389 224.438C172.399 224.532 172.379 224.627 172.332 224.71C172.309 224.788 172.258 224.855 172.189 224.899L171.616 225.228C171.59 225.243 171.56 225.251 171.53 225.251C171.5 225.251 171.47 225.243 171.444 225.228L171.32 225.134C171.271 225.096 171.211 225.073 171.148 225.068C171.025 225.081 170.907 225.123 170.804 225.19C170.654 225.279 170.522 225.394 170.413 225.529C170.297 225.677 170.236 225.86 170.241 226.047C170.227 226.118 170.227 226.191 170.241 226.263C170.259 226.29 170.283 226.312 170.311 226.328C170.339 226.344 170.371 226.354 170.403 226.357C170.507 226.374 170.614 226.374 170.718 226.357L171.253 226.263C171.702 226.178 172.007 226.263 172.208 226.508C172.419 226.856 172.515 227.26 172.485 227.665C172.483 227.945 172.444 228.223 172.37 228.493C172.295 228.787 172.186 229.071 172.046 229.34C171.905 229.619 171.729 229.878 171.52 230.112C171.323 230.34 171.087 230.534 170.823 230.686C170.613 230.818 170.374 230.898 170.126 230.921C169.947 230.927 169.77 230.878 169.62 230.78C169.473 230.68 169.359 230.539 169.295 230.375C169.218 230.197 169.179 230.004 169.181 229.81C169.172 229.713 169.192 229.615 169.238 229.528C169.261 229.451 169.312 229.384 169.381 229.34L169.954 229.011C170.031 229.011 170.088 228.964 170.126 229.011L170.25 229.142C170.276 229.17 170.307 229.193 170.341 229.209C170.375 229.226 170.413 229.235 170.451 229.236C170.585 229.237 170.716 229.194 170.823 229.114C170.996 229.018 171.151 228.894 171.282 228.747C171.347 228.67 171.401 228.584 171.444 228.493C171.512 228.418 171.558 228.328 171.578 228.23V228.23Z" fill="#FAFAFA"/>
<path d="M173.526 225.68C173.524 225.191 173.565 224.703 173.65 224.221C173.73 223.768 173.854 223.323 174.022 222.894C174.163 222.51 174.355 222.146 174.595 221.812C174.795 221.526 175.056 221.285 175.359 221.106C175.581 220.96 175.851 220.903 176.114 220.947C176.347 221 176.552 221.137 176.687 221.332C176.866 221.588 176.993 221.875 177.059 222.179C177.151 222.574 177.196 222.978 177.193 223.384V223.967C177.196 224.065 177.173 224.163 177.126 224.249C177.103 224.327 177.052 224.394 176.983 224.437L174.5 225.858C174.494 226.024 174.516 226.189 174.567 226.348C174.604 226.454 174.67 226.549 174.758 226.621C174.836 226.682 174.935 226.712 175.035 226.705C175.15 226.692 175.261 226.653 175.359 226.592C175.504 226.515 175.633 226.413 175.741 226.291C175.839 226.183 175.922 226.063 175.99 225.934C176.03 225.859 176.075 225.787 176.123 225.717C176.164 225.669 176.213 225.628 176.266 225.595L176.859 225.256C176.879 225.24 176.904 225.231 176.93 225.231C176.956 225.231 176.981 225.24 177.002 225.256C177.027 225.286 177.045 225.321 177.055 225.358C177.065 225.395 177.066 225.435 177.059 225.473C177.049 225.656 177.01 225.837 176.944 226.009C176.862 226.27 176.753 226.522 176.62 226.762C176.47 227.037 176.291 227.296 176.085 227.533C175.88 227.776 175.634 227.982 175.359 228.145C175.134 228.291 174.863 228.354 174.595 228.324C174.36 228.268 174.156 228.127 174.022 227.928C173.834 227.643 173.708 227.323 173.65 226.987C173.563 226.557 173.521 226.119 173.526 225.68V225.68ZM175.359 222.678C175.212 222.756 175.085 222.865 174.987 222.998C174.881 223.13 174.794 223.275 174.729 223.431C174.662 223.586 174.608 223.747 174.567 223.911C174.533 224.059 174.511 224.21 174.5 224.362L176.18 223.421C176.171 223.291 176.152 223.163 176.123 223.035C176.109 222.922 176.062 222.814 175.99 222.725C175.961 222.684 175.924 222.65 175.881 222.624C175.839 222.598 175.791 222.581 175.741 222.574C175.605 222.563 175.47 222.6 175.359 222.678V222.678Z" fill="#FAFAFA"/>
<path d="M180.192 220.053C179.903 220.215 179.675 220.466 179.543 220.768C179.394 221.165 179.326 221.587 179.342 222.01V225.407C179.344 225.504 179.324 225.6 179.285 225.689C179.262 225.767 179.211 225.833 179.142 225.877L178.578 226.197C178.569 226.207 178.558 226.215 178.546 226.221C178.534 226.226 178.52 226.229 178.507 226.229C178.493 226.229 178.48 226.226 178.467 226.221C178.455 226.215 178.444 226.207 178.435 226.197C178.392 226.133 178.372 226.057 178.378 225.981V219.893C178.378 219.796 178.398 219.7 178.435 219.611C178.462 219.535 178.512 219.469 178.578 219.422L179.142 219.102C179.161 219.085 179.187 219.075 179.213 219.075C179.24 219.075 179.266 219.085 179.285 219.102C179.329 219.162 179.35 219.236 179.342 219.309V219.611C179.456 219.358 179.597 219.118 179.763 218.895C179.914 218.689 180.109 218.519 180.336 218.397L180.679 218.199C180.697 218.182 180.721 218.172 180.746 218.172C180.771 218.172 180.795 218.182 180.813 218.199C180.859 218.262 180.883 218.338 180.88 218.415V219.272C180.878 219.369 180.855 219.466 180.813 219.554C180.789 219.629 180.742 219.694 180.679 219.742L180.192 220.053Z" fill="#FAFAFA"/>
<path d="M187.316 219.601C187.325 219.591 187.336 219.583 187.348 219.577C187.361 219.572 187.374 219.569 187.388 219.569C187.401 219.569 187.415 219.572 187.427 219.577C187.439 219.583 187.45 219.591 187.459 219.601C187.502 219.665 187.522 219.741 187.517 219.817V220.758C187.516 220.855 187.497 220.951 187.459 221.041C187.427 221.111 187.377 221.172 187.316 221.219L184.05 223.101C184.031 223.119 184.005 223.129 183.978 223.129C183.952 223.129 183.926 223.119 183.907 223.101C183.864 223.041 183.844 222.968 183.85 222.894V214.426C183.85 214.329 183.87 214.233 183.907 214.143C183.934 214.07 183.984 214.007 184.05 213.965L184.652 213.616C184.671 213.599 184.697 213.589 184.723 213.589C184.75 213.589 184.776 213.599 184.795 213.616C184.838 213.677 184.858 213.75 184.852 213.823V220.984L187.316 219.601Z" fill="#FAFAFA"/>
<path d="M190.248 212.638C190.463 212.491 190.722 212.422 190.983 212.44C191.207 212.458 191.415 212.559 191.566 212.723C191.744 212.924 191.874 213.162 191.948 213.419C192.05 213.752 192.107 214.097 192.119 214.445C192.119 214.52 192.119 214.623 192.119 214.746V215.47C192.119 215.583 192.119 215.687 192.119 215.771C192.101 216.18 192.043 216.587 191.948 216.985C191.859 217.373 191.731 217.752 191.566 218.114C191.414 218.452 191.218 218.768 190.983 219.055C190.782 219.315 190.532 219.536 190.248 219.705C190.027 219.846 189.766 219.915 189.503 219.902C189.282 219.883 189.077 219.782 188.93 219.62C188.747 219.426 188.615 219.19 188.548 218.933C188.446 218.6 188.388 218.255 188.376 217.907C188.376 217.832 188.376 217.738 188.376 217.616V216.891C188.376 216.769 188.376 216.665 188.376 216.59C188.387 216.178 188.442 215.768 188.538 215.367C188.631 214.976 188.762 214.594 188.93 214.228C189.082 213.893 189.274 213.577 189.503 213.287C189.705 213.025 189.958 212.804 190.248 212.638V212.638ZM191.145 215.066C191.145 214.857 191.109 214.651 191.04 214.454C191.005 214.334 190.931 214.229 190.83 214.153C190.749 214.099 190.651 214.076 190.553 214.087C190.444 214.107 190.34 214.149 190.248 214.209C190.135 214.27 190.033 214.346 189.942 214.435C189.833 214.547 189.739 214.674 189.665 214.812C189.569 214.983 189.498 215.167 189.455 215.357C189.392 215.598 189.354 215.844 189.341 216.091C189.341 216.167 189.341 216.251 189.341 216.355V217.023C189.341 217.126 189.341 217.211 189.341 217.268C189.349 217.476 189.388 217.682 189.455 217.879C189.49 217.999 189.564 218.105 189.665 218.18C189.705 218.208 189.75 218.227 189.798 218.237C189.845 218.247 189.895 218.247 189.942 218.237C190.05 218.219 190.154 218.18 190.248 218.124C190.358 218.061 190.461 217.985 190.553 217.898C190.66 217.783 190.753 217.657 190.83 217.522C190.922 217.349 190.993 217.165 191.04 216.976C191.103 216.736 191.138 216.49 191.145 216.242C191.151 216.154 191.151 216.066 191.145 215.978V215.32C191.151 215.235 191.151 215.15 191.145 215.066Z" fill="#FAFAFA"/>
<path d="M195.042 218.143C195.164 218.069 195.274 217.977 195.367 217.87C195.482 217.737 195.581 217.592 195.663 217.437C195.758 217.248 195.831 217.049 195.882 216.844C195.941 216.613 195.97 216.376 195.968 216.138V215.658C195.968 215.753 195.873 215.865 195.806 215.997C195.74 216.135 195.664 216.267 195.577 216.392C195.477 216.525 195.368 216.65 195.252 216.769C195.132 216.893 194.994 216.997 194.841 217.079C194.743 217.145 194.633 217.191 194.516 217.214C194.399 217.236 194.279 217.235 194.163 217.211C193.951 217.146 193.769 217.009 193.648 216.825C193.492 216.582 193.379 216.315 193.313 216.035C193.232 215.679 193.187 215.317 193.18 214.953C193.18 214.83 193.18 214.68 193.18 214.501C193.18 214.322 193.18 214.172 193.18 214.04C193.192 213.626 193.236 213.214 193.313 212.807C193.392 212.407 193.504 212.013 193.648 211.631C193.783 211.299 193.956 210.984 194.163 210.69C194.339 210.431 194.571 210.212 194.841 210.05C194.968 209.975 195.107 209.921 195.252 209.89C195.359 209.871 195.469 209.871 195.577 209.89C195.661 209.914 195.74 209.956 195.806 210.013C195.867 210.059 195.921 210.112 195.968 210.173V209.872C195.969 209.775 195.988 209.679 196.026 209.589C196.052 209.516 196.102 209.453 196.169 209.41L196.732 209.081C196.752 209.063 196.777 209.053 196.804 209.053C196.83 209.053 196.856 209.063 196.875 209.081C196.922 209.144 196.945 209.22 196.942 209.298V215.414C196.968 216.33 196.795 217.241 196.436 218.086C196.154 218.751 195.666 219.311 195.042 219.686C194.829 219.816 194.586 219.891 194.335 219.902C194.137 219.914 193.94 219.865 193.772 219.761C193.61 219.642 193.48 219.487 193.39 219.309C193.297 219.095 193.245 218.865 193.237 218.632C193.228 218.534 193.248 218.436 193.294 218.35C193.318 218.272 193.369 218.205 193.438 218.161L193.944 217.879C193.955 217.867 193.969 217.857 193.985 217.85C194.001 217.844 194.017 217.84 194.034 217.84C194.051 217.84 194.068 217.844 194.084 217.85C194.099 217.857 194.113 217.867 194.125 217.879C194.172 217.928 194.214 217.982 194.249 218.039C194.307 218.14 194.403 218.214 194.517 218.246C194.631 218.331 194.803 218.237 195.042 218.143ZM194.144 213.579C194.144 213.83 194.144 214.074 194.144 214.313C194.117 214.689 194.225 215.062 194.45 215.367C194.535 215.439 194.643 215.479 194.755 215.479C194.868 215.479 194.976 215.439 195.061 215.367C195.338 215.189 195.554 214.933 195.682 214.633C195.856 214.24 195.953 213.819 195.968 213.391C195.968 213.25 195.968 213.08 195.968 212.883C195.968 212.685 195.968 212.516 195.968 212.393C195.988 212.056 195.886 211.723 195.682 211.452C195.597 211.376 195.486 211.333 195.371 211.333C195.256 211.333 195.146 211.376 195.061 211.452C194.789 211.629 194.577 211.881 194.45 212.177C194.254 212.619 194.15 213.096 194.144 213.579V213.579Z" fill="#FAFAFA"/>
<path d="M199.167 205.223C199.186 205.208 199.209 205.199 199.234 205.199C199.258 205.199 199.282 205.208 199.3 205.223C199.35 205.284 199.374 205.362 199.367 205.44V206.465C199.368 206.563 199.345 206.66 199.3 206.747C199.274 206.818 199.227 206.88 199.167 206.926L198.527 207.293C198.518 207.303 198.507 207.311 198.495 207.317C198.482 207.322 198.469 207.325 198.455 207.325C198.442 207.325 198.428 207.322 198.416 207.317C198.404 207.311 198.393 207.303 198.384 207.293C198.359 207.265 198.34 207.232 198.328 207.197C198.317 207.161 198.313 207.123 198.317 207.086V206.061C198.316 205.963 198.339 205.866 198.384 205.778C198.41 205.705 198.461 205.642 198.527 205.6L199.167 205.223ZM199.329 214.059C199.329 214.153 199.31 214.246 199.272 214.332C199.241 214.406 199.192 214.47 199.129 214.52L198.556 214.84C198.548 214.85 198.537 214.857 198.526 214.863C198.514 214.868 198.502 214.871 198.489 214.871C198.476 214.871 198.463 214.868 198.452 214.863C198.44 214.857 198.43 214.85 198.422 214.84C198.372 214.779 198.348 214.701 198.355 214.623V208.535C198.354 208.437 198.377 208.341 198.422 208.253C198.449 208.18 198.495 208.115 198.556 208.065L199.129 207.745C199.148 207.727 199.174 207.717 199.2 207.717C199.227 207.717 199.252 207.727 199.272 207.745C199.315 207.805 199.335 207.878 199.329 207.952V214.059Z" fill="#FAFAFA"/>
<path d="M204.353 211.189C204.352 211.286 204.333 211.381 204.295 211.471C204.269 211.544 204.219 211.607 204.152 211.65L203.579 211.979C203.561 211.996 203.537 212.006 203.512 212.006C203.487 212.006 203.463 211.996 203.446 211.979C203.396 211.918 203.372 211.841 203.379 211.763V208.451C203.408 208.06 203.336 207.668 203.169 207.312C203.035 207.077 202.825 207.039 202.529 207.208C202.234 207.404 202.015 207.693 201.908 208.027C201.749 208.471 201.671 208.939 201.679 209.41V212.732C201.678 212.829 201.659 212.925 201.622 213.014C201.598 213.092 201.547 213.159 201.478 213.202L200.915 213.522C200.906 213.532 200.895 213.54 200.883 213.546C200.87 213.551 200.857 213.554 200.843 213.554C200.83 213.554 200.816 213.551 200.804 213.546C200.792 213.54 200.781 213.532 200.772 213.522C200.727 213.463 200.707 213.389 200.714 213.315V207.227C200.713 207.13 200.733 207.034 200.772 206.945C200.795 206.867 200.846 206.801 200.915 206.757L201.478 206.437C201.487 206.427 201.498 206.419 201.511 206.413C201.523 206.408 201.536 206.405 201.55 206.405C201.564 206.405 201.577 206.408 201.589 206.413C201.602 206.419 201.613 206.427 201.622 206.437C201.664 206.501 201.684 206.577 201.679 206.653V206.945C201.805 206.658 201.958 206.384 202.137 206.126C202.294 205.889 202.507 205.692 202.758 205.552C202.975 205.396 203.246 205.328 203.512 205.364C203.618 205.39 203.717 205.438 203.803 205.505C203.888 205.571 203.958 205.655 204.009 205.75C204.148 206.005 204.238 206.282 204.276 206.569C204.327 206.943 204.353 207.32 204.353 207.698V211.189Z" fill="#FAFAFA"/>
<path d="M252.521 183.798L243.248 189.067L244.69 176.251C243.573 175.668 242.866 174.247 242.866 172.205C242.866 168.563 245.12 164.338 247.889 162.795C250.659 161.252 252.903 162.889 252.903 166.559C252.846 168.718 252.22 170.826 251.088 172.675L252.521 183.798Z" fill="#455A64"/>
<path d="M252.531 183.798L244.366 179.159L243.249 189.076L252.531 183.798Z" fill="#37474F"/>
<path d="M247.87 162.767C245.851 164.111 244.345 166.082 243.592 168.366L251.069 172.619C252.201 170.769 252.826 168.662 252.884 166.503C252.903 162.861 250.659 161.196 247.87 162.767Z" fill="#37474F"/>
<path d="M202.795 120.094C199.615 118.288 195.232 118.542 190.381 121.299C180.697 126.813 172.848 140.203 172.848 151.221C172.848 156.754 174.834 160.631 178.024 162.419L184.202 165.957C187.373 167.764 191.756 167.5 196.617 164.743C206.3 159.238 214.15 145.839 214.15 134.82C214.15 129.316 212.183 125.411 209.012 123.651" fill="#09B358"/>
<path d="M196.608 124.846C186.925 130.36 179.075 143.76 179.075 154.769C179.075 165.778 186.925 170.257 196.608 164.743C206.292 159.229 214.151 145.839 214.142 134.82C214.132 123.802 206.282 119.342 196.608 124.846Z" fill="#09B358"/>
<path d="M206.281 149.292V150.553C203.961 154.633 200.634 158.07 196.607 160.546C192.835 162.682 189.426 162.917 186.924 161.553V158.956C187.052 156.254 187.835 153.622 189.207 151.279C190.58 148.936 192.501 146.952 194.812 145.491L197.362 144.042C199.615 142.762 201.812 142.593 203.531 143.581C205.25 144.569 206.281 146.648 206.281 149.292Z" fill="#09B358"/>
<path opacity="0.4" d="M202.795 120.094L209.003 123.651C205.832 121.835 201.449 122.089 196.588 124.846C190.247 128.46 184.689 135.451 181.614 142.941L175.397 139.393C178.482 131.866 183.992 124.912 190.371 121.299C195.242 118.551 199.625 118.288 202.795 120.094Z" fill="white"/>
<path opacity="0.2" d="M183.983 165.816L178.033 162.419C174.844 160.631 172.857 156.773 172.857 151.221L179.074 154.778C179.112 160.142 180.946 163.962 183.983 165.816Z" fill="black"/>
<path opacity="0.1" d="M175.417 139.393L181.633 142.941C180.041 146.691 179.185 150.704 179.112 154.769V154.769L172.896 151.212C172.972 147.151 173.828 143.141 175.417 139.393Z" fill="black"/>
<path d="M194.392 143.449C193.8 143.455 193.216 143.306 192.702 143.016C192.082 142.609 191.585 142.044 191.264 141.382C190.943 140.719 190.809 139.983 190.878 139.252C190.959 137.538 191.455 135.868 192.326 134.381C193.197 132.895 194.416 131.635 195.882 130.708V130.708C196.471 130.245 197.188 129.968 197.939 129.913C198.69 129.858 199.441 130.027 200.093 130.399C200.745 130.771 201.268 131.329 201.594 131.998C201.919 132.668 202.032 133.419 201.917 134.152C201.835 135.866 201.337 137.536 200.467 139.022C199.596 140.509 198.378 141.768 196.913 142.696C196.155 143.162 195.285 143.422 194.392 143.449V143.449Z" fill="white"/>
<path d="M203.531 143.571C201.812 142.583 199.615 142.753 197.362 144.032L194.812 145.481C192.5 146.943 190.577 148.929 189.205 151.274C187.833 153.618 187.05 156.252 186.924 158.956V161.562C189.426 162.927 192.835 162.692 196.607 160.556C200.634 158.08 203.961 154.643 206.281 150.563V149.302C206.281 146.648 205.288 144.569 203.531 143.571Z" fill="white"/>
<path d="M399.854 306.358C399.854 306.358 401.125 295.367 406.673 286.833C412.221 278.298 419.842 272.982 426.956 272.427C434.071 271.871 439.82 278.326 432.209 282.777C424.598 287.228 411.075 291.726 404.849 308.287L399.854 306.358Z" fill="#09B358"/>
<path opacity="0.1" d="M399.854 306.358C399.854 306.358 401.125 295.367 406.673 286.833C412.221 278.298 419.842 272.982 426.956 272.427C434.071 271.871 439.82 278.326 432.209 282.777C424.598 287.228 411.075 291.726 404.849 308.287L399.854 306.358Z" fill="black"/>
<path d="M401.946 303.497H401.87C401.776 303.46 401.701 303.387 401.662 303.295C401.623 303.204 401.622 303.1 401.66 303.008C409.166 284.8 423.452 277.188 429.965 275.72C430.014 275.709 430.064 275.707 430.114 275.715C430.163 275.724 430.211 275.741 430.253 275.768C430.296 275.794 430.333 275.828 430.362 275.868C430.391 275.908 430.412 275.954 430.423 276.002C430.434 276.05 430.436 276.1 430.428 276.149C430.419 276.198 430.401 276.245 430.375 276.287C430.348 276.328 430.314 276.365 430.273 276.394C430.232 276.422 430.186 276.443 430.137 276.454C423.757 277.903 409.748 285.374 402.366 303.299C402.329 303.375 402.268 303.435 402.191 303.471C402.115 303.507 402.028 303.516 401.946 303.497V303.497Z" fill="white"/>
<path d="M439.934 303.713C439.294 305.144 437.709 305.896 436.238 306.48C434.768 307.063 433.163 307.694 432.361 309.049C430.757 311.777 433.393 315.635 431.674 318.28C431.269 318.812 430.759 319.258 430.175 319.591C429.591 319.924 428.944 320.137 428.274 320.218C427.176 320.416 426.058 320.416 424.951 320.51C424.42 320.503 423.891 320.462 423.365 320.387C421.822 320.048 420.209 320.217 418.772 320.867C416.566 322.09 415.907 324.829 414.551 326.946C413.723 328.192 412.631 329.248 411.35 330.04C410.07 330.833 408.63 331.344 407.131 331.538C406.176 331.66 404.266 331.839 403.311 331.284C403.236 331.248 403.166 331.203 403.101 331.152V331.152C402.958 331.001 402.786 330.804 402.709 330.7C402.705 330.679 402.705 330.656 402.709 330.634C402.318 329.214 402.958 327.746 402.986 326.278V326.014C402.92 324.311 402.872 322.617 402.834 320.924C402.751 317.787 402.719 314.651 402.738 311.514C402.738 309.482 402.509 307.261 403.388 305.351C404.342 303.243 406.749 303.196 407.656 301.135C408.019 300.307 408.21 299.432 408.563 298.595C409.109 297.377 409.984 296.331 411.092 295.569C412.2 294.807 413.499 294.36 414.847 294.276C419.039 294.069 422.792 297.409 426.985 297.098C428.064 297.014 429.124 296.684 430.193 296.496C433.584 295.866 437.509 296.816 439.418 299.648C439.838 300.232 440.104 300.908 440.194 301.617C440.284 302.326 440.195 303.046 439.934 303.713V303.713Z" fill="#09B358"/>
<path d="M402.289 324.114C402.199 324.087 402.123 324.027 402.076 323.947C402.03 323.866 402.017 323.771 402.041 323.681C407.828 302.283 430.69 299.216 436.066 299.573C436.114 299.576 436.16 299.587 436.203 299.608C436.245 299.628 436.283 299.657 436.314 299.692C436.346 299.727 436.369 299.768 436.384 299.812C436.399 299.856 436.405 299.903 436.401 299.95C436.391 300.041 436.346 300.125 436.275 300.185C436.204 300.245 436.112 300.275 436.019 300.27C430.776 299.903 408.392 302.923 402.729 323.869C402.702 323.958 402.641 324.033 402.559 324.079C402.477 324.124 402.38 324.137 402.289 324.114V324.114Z" fill="white"/>
<path d="M427.72 313.274C427.648 313.264 427.581 313.231 427.529 313.18C425.416 311.375 422.924 310.052 420.231 309.305C417.539 308.559 414.713 308.407 411.954 308.861C411.861 308.869 411.768 308.843 411.694 308.787C411.619 308.731 411.569 308.65 411.553 308.56C411.539 308.467 411.562 308.374 411.617 308.298C411.673 308.222 411.756 308.171 411.849 308.155C414.726 307.683 417.674 307.844 420.48 308.627C423.287 309.409 425.883 310.794 428.083 312.681C428.117 312.713 428.144 312.752 428.162 312.795C428.181 312.838 428.19 312.884 428.19 312.93C428.19 312.977 428.181 313.023 428.162 313.066C428.144 313.108 428.117 313.147 428.083 313.18C428.04 313.23 427.982 313.267 427.917 313.284C427.852 313.3 427.783 313.297 427.72 313.274Z" fill="white"/>
<path d="M347.303 47.9226L350.339 49.0705V42.4838C350.339 37.2521 354.57 36.0006 359.163 38.6165C363.766 41.2323 367.491 47.5838 367.491 52.8156V53.7565C368.131 53.5638 368.807 53.5162 369.468 53.6172C370.13 53.7182 370.76 53.9653 371.311 54.3399C373.055 55.4606 374.506 56.9709 375.546 58.7481C376.587 60.5253 377.187 62.5194 377.298 64.5682V65.001L381.538 67.4099C382.685 68.1477 383.64 69.1412 384.325 70.31C385.01 71.4788 385.407 72.79 385.482 74.1378C385.482 76.6219 383.716 77.6287 381.538 76.3867L347.303 56.8993C346.155 56.1633 345.2 55.17 344.516 54.0007C343.832 52.8314 343.439 51.5192 343.368 50.1715C343.368 47.6967 345.116 46.6899 347.303 47.9226Z" fill="#E6E6E6"/>
<path d="M387.975 42.7097L393.486 45.8431C393.455 45.6058 393.439 45.3671 393.438 45.128V43.5566C393.438 40.7337 395.424 39.6233 397.888 41.0254C398.947 41.6641 399.852 42.5212 400.543 43.5377C400.944 40.0185 403.751 38.7106 407.151 40.6396C409.094 41.8851 410.712 43.5642 411.873 45.5407C413.034 47.5172 413.707 49.7355 413.836 52.0158V54.3682C413.86 55.3081 413.668 56.2412 413.272 57.097L417.856 59.694C418.571 60.1609 419.164 60.7863 419.589 61.52C420.013 62.2538 420.257 63.0754 420.301 63.919C420.301 65.4715 419.193 66.102 417.828 65.3304L387.975 48.3931C387.253 47.9296 386.653 47.3043 386.223 46.5684C385.793 45.8325 385.546 45.0068 385.502 44.1588C385.502 42.5685 386.61 41.9381 387.975 42.7097Z" fill="#E6E6E6"/>
<path d="M366.641 185.519C362.63 192.2 358.772 198.006 356.06 200.791C350.913 203.144 338.823 206.776 334.096 207.378C333.265 207.482 332.425 207.288 331.727 206.832C329.865 205.628 328.423 205.43 326.465 204.762C324.928 204.244 324.278 203.52 323.992 203.821C323.696 204.163 323.547 204.605 323.578 205.053C323.608 205.502 323.815 205.92 324.154 206.221C324.889 206.908 325.703 207.508 326.58 208.008C324.483 208.521 322.296 208.56 320.182 208.121C316.085 207.058 314.156 208.996 316.925 213.381C317.88 214.943 321.815 217.456 329.722 216.778C332.543 216.628 335.352 216.314 338.135 215.837C345.718 214.238 354.15 212.694 359.335 211.132C361.264 210.385 362.991 209.206 364.378 207.688C373.096 197.893 375.99 190.911 379.81 184.569L379.485 174.218C373.297 174.011 369.993 179.93 366.641 185.519Z" fill="#FFA8A7"/>
<path d="M380.545 174.012C378.751 173.763 376.921 174.002 375.255 174.704C373.589 175.405 372.149 176.542 371.091 177.992C366.851 183.346 359.345 196.199 359.345 196.199C359.345 196.199 361.799 202.645 368.426 203.727L379.074 189.556C379.074 189.556 384.117 179.714 380.545 174.012Z" fill="#455A64"/>
<path d="M403.569 318.487H396.626V330.682H403.569V318.487Z" fill="#FFA8A7"/>
<path d="M379.504 317.837L372.571 318.082L372.218 305.172L379.504 304.927V317.837Z" fill="#FFA8A7"/>
<path d="M404.543 212.92C404.543 219.714 403.531 274.45 403.531 274.45C403.684 276.407 405.441 280.02 405.087 287.538C404.562 297.748 403.865 324.584 403.865 324.584C402.673 325.185 401.358 325.511 400.02 325.537C398.681 325.563 397.354 325.289 396.139 324.735C396.139 324.735 390.505 287.096 389.264 277.019C388.175 268.183 385.386 238.938 385.386 238.938L381.633 273.509C382.429 277.218 382.718 281.016 382.493 284.8C382.168 289.505 379.934 313.857 379.934 313.857C378.734 314.554 377.389 314.973 376.001 315.083C374.613 315.192 373.218 314.988 371.921 314.488C371.921 314.488 367.968 277.79 367.891 273.481C367.796 268.588 370.202 212.864 370.202 212.864L404.543 212.92Z" fill="#37474F"/>
<path d="M396.626 327.162V326.146C395.958 326.438 394.42 332.479 391.661 335.057C389.474 337.108 386.494 339.47 385.73 341.757C384.966 344.043 389.884 345.445 391.938 345.078C394.306 344.645 398.431 342.923 399.463 341.314C400.494 339.705 400.981 337.372 401.821 336.205C402.662 335.038 404.6 333.74 405.049 332.385C405.189 331.117 405.056 329.834 404.658 328.621C404.333 327.36 403.989 325.977 403.569 326.099V326.871C402.59 327.662 401.359 328.089 400.093 328.075C399.081 328.16 396.617 327.953 396.626 327.162Z" fill="#263238"/>
<path d="M372.495 315.88C372.132 315.88 371.836 316.417 371.043 317.301C369.865 318.523 368.486 319.54 366.965 320.312C364.368 321.648 359.326 323.7 357.024 324.763C355.592 325.422 355.659 327.191 357.139 328.197C358.619 329.204 362.181 329.929 366.459 328.95C368.789 328.414 371.826 326.203 373.755 326.325C375.684 326.447 379.265 326.41 380.688 325.384C382.111 324.358 381.538 322.232 381.137 320.397C380.698 318.383 380.182 315.25 379.504 315.391V316.097C378.673 317.395 374.367 317.922 372.533 316.972L372.495 315.88Z" fill="#263238"/>
<path d="M385.387 238.938C381.775 237.773 378.474 235.828 375.723 233.245C375.723 233.245 377.633 236.83 383.133 240.17L381.949 271.043L385.387 238.938Z" fill="#263238"/>
<path d="M400.666 175.009C400.666 175.009 406.396 176.307 405.985 186.507L404.792 202.739V227.11C399.692 232.812 377.097 232.398 369.314 226.658C369.314 226.658 370.193 197.818 370.718 186.714C371.091 178.829 372.934 174.858 380.803 173.993L390.477 174.407L400.666 175.009Z" fill="#09B358"/>
<path d="M393.37 153.818C393.403 155.184 393.161 156.542 392.659 157.816C392.156 159.089 391.403 160.251 390.443 161.236C389.482 162.221 388.333 163.009 387.062 163.554C385.791 164.1 384.423 164.392 383.037 164.414C377.307 164.414 373.946 159.539 372.704 153.818C370.412 143.345 377.326 143.214 383.037 143.214C385.834 143.271 388.494 144.42 390.432 146.408C392.369 148.397 393.426 151.062 393.37 153.818V153.818Z" fill="#263238"/>
<path d="M398.642 158.1C398.642 158.1 397.057 165.74 396.417 167.001C396.014 167.76 395.33 168.337 394.507 168.61L394.621 163.237L398.642 158.1Z" fill="#263238"/>
<path d="M396.646 147.156C396.646 147.156 397.782 146.874 398.995 148.737C400.026 150.327 400.265 153.903 398.641 158.147L395.652 158.504L396.646 147.156Z" fill="#263238"/>
<path d="M397.744 148.709L401.411 148.775C401.436 148.541 401.412 148.305 401.34 148.081C401.268 147.857 401.15 147.651 400.993 147.474C400.836 147.297 400.644 147.154 400.428 147.054C400.213 146.954 399.978 146.899 399.74 146.893C399.239 146.9 398.758 147.089 398.389 147.424C398.021 147.76 397.791 148.217 397.744 148.709Z" fill="#263238"/>
<path d="M398.193 147.853L400.905 145.284C400.748 145.102 400.556 144.955 400.338 144.85C400.121 144.746 399.885 144.687 399.643 144.677C399.402 144.667 399.161 144.707 398.936 144.794C398.711 144.88 398.507 145.012 398.336 145.18C397.976 145.527 397.762 145.994 397.735 146.489C397.709 146.984 397.872 147.471 398.193 147.853V147.853Z" fill="#263238"/>
<path d="M394.755 158.457C395.357 158.824 396.207 157.648 396.952 156.848C397.696 156.048 400.007 155.315 401.211 157.912C402.414 160.509 400.361 163.077 398.642 163.924C395.557 165.43 394.583 163.237 394.583 163.237L394.325 175.338C389.99 181.925 380.154 181.718 383.697 175.018V171.339C382.239 171.578 380.759 171.654 379.285 171.565C376.878 171.189 375.369 169.241 374.634 166.568C373.469 162.278 373.02 158.815 374.013 150.374C375.102 141.134 385.587 141.031 391.203 144.729C396.818 148.427 394.755 158.457 394.755 158.457Z" fill="#FFA8A7"/>
<path d="M381.691 148.935C384.193 148.69 386.666 148.182 389.178 147.994C389.719 147.929 390.268 147.955 390.801 148.069C392.711 148.587 392.482 150.788 392.787 152.322C393.313 154.976 393.742 159.464 394.755 159.483C395.06 159.483 396.206 157.535 396.951 156.839C397.36 156.239 397.592 155.538 397.619 154.816C397.81 153.724 397.906 152.605 397.992 151.494C398.068 150.553 398.164 149.612 398.164 148.671C398.207 147.608 398.121 146.543 397.906 145.5C397.667 144.613 397.207 143.798 396.569 143.129L396.378 142.922C395.119 141.625 393.592 140.611 391.899 139.949C389.464 139.05 386.911 138.501 384.317 138.321C381.727 138.14 379.148 137.826 376.591 137.38C376.445 137.338 376.289 137.338 376.142 137.38C376.039 137.436 375.951 137.518 375.888 137.616C375.824 137.715 375.787 137.828 375.779 137.944C375.675 138.529 375.74 139.131 375.968 139.681C376.196 140.23 376.578 140.705 377.069 141.05C375.34 141.181 373.354 140.297 371.692 139.845C371.558 139.789 371.413 139.76 371.267 139.76C371.121 139.76 370.977 139.789 370.842 139.845C370.675 139.96 370.557 140.13 370.508 140.325C370.387 140.767 370.371 141.231 370.46 141.68C370.612 143.042 371.126 144.34 371.95 145.444C373.237 147.095 375.055 148.266 377.107 148.765C378.617 149.052 380.163 149.109 381.691 148.935V148.935Z" fill="#263238"/>
<path d="M383.705 171.339C383.705 171.339 389.072 170.229 390.944 169.203C392.059 168.602 392.964 167.684 393.541 166.568C393.259 167.689 392.756 168.744 392.061 169.674C390.695 171.48 383.705 172.798 383.705 172.798V171.339Z" fill="#F28F8F"/>
<path d="M384.995 157.074C384.984 157.365 385.091 157.647 385.291 157.861C385.492 158.074 385.77 158.2 386.064 158.213C386.298 158.232 386.533 158.181 386.737 158.066C386.941 157.952 387.105 157.779 387.207 157.571C387.31 157.363 387.347 157.129 387.312 156.901C387.278 156.672 387.174 156.459 387.015 156.289C386.855 156.119 386.648 156.001 386.419 155.949C386.19 155.898 385.951 155.916 385.732 156.001C385.514 156.086 385.327 156.234 385.195 156.425C385.063 156.617 384.994 156.843 384.995 157.074V157.074Z" fill="#263238"/>
<path d="M386.714 152.51L389.015 153.818C389.183 153.496 389.221 153.123 389.122 152.774C389.023 152.426 388.794 152.126 388.481 151.936C388.328 151.852 388.159 151.8 387.985 151.783C387.811 151.767 387.635 151.786 387.469 151.84C387.303 151.894 387.15 151.982 387.02 152.097C386.89 152.212 386.786 152.353 386.714 152.51V152.51Z" fill="#263238"/>
<path d="M384.183 164.705L381.729 165.646C381.778 165.812 381.861 165.966 381.974 166.099C382.086 166.232 382.225 166.34 382.382 166.418C382.538 166.496 382.71 166.541 382.885 166.55C383.06 166.56 383.235 166.534 383.4 166.474C383.734 166.333 384.001 166.071 384.146 165.742C384.291 165.414 384.305 165.043 384.183 164.705V164.705Z" fill="#F28F8F"/>
<path d="M375.12 153.48L377.221 151.824C377.127 151.679 377.003 151.556 376.857 151.461C376.711 151.367 376.547 151.304 376.375 151.277C376.203 151.249 376.027 151.258 375.858 151.302C375.69 151.346 375.533 151.424 375.397 151.532C375.116 151.766 374.933 152.095 374.882 152.454C374.831 152.813 374.915 153.178 375.12 153.48V153.48Z" fill="#263238"/>
<path d="M376.047 156.764C376.064 156.97 376.141 157.166 376.269 157.33C376.397 157.493 376.571 157.616 376.769 157.684C376.967 157.751 377.181 157.761 377.384 157.71C377.588 157.66 377.772 157.553 377.914 157.401C378.057 157.25 378.151 157.061 378.186 156.857C378.222 156.654 378.196 156.444 378.112 156.255C378.029 156.065 377.891 155.904 377.716 155.791C377.541 155.677 377.336 155.616 377.126 155.616C376.978 155.62 376.833 155.654 376.699 155.715C376.565 155.775 376.444 155.861 376.344 155.968C376.243 156.075 376.165 156.2 376.114 156.337C376.063 156.473 376.041 156.618 376.047 156.764V156.764Z" fill="#263238"/>
<path d="M381.805 155.879L381.681 162.569L377.823 161.704L381.805 155.879Z" fill="#F28F8F"/>
<path d="M290.186 211.913L296.173 208.507L298.542 205.675L292.563 209.081L290.186 211.913Z" fill="#09B358"/>
<path opacity="0.4" d="M290.186 211.913L296.173 208.507L298.542 205.675L292.563 209.081L290.186 211.913Z" fill="black"/>
<path d="M306.468 221.172L312.455 217.766L317.45 213.409L311.472 216.806L306.468 221.172Z" fill="#09B358"/>
<path opacity="0.4" d="M306.468 221.172L312.455 217.766L317.45 213.409L311.472 216.806L306.468 221.172Z" fill="black"/>
<path d="M357.33 232.925C358.745 234.795 359.602 237.018 359.803 239.342C358.393 237.469 357.537 235.248 357.33 232.925V232.925ZM371.243 233.104C369.228 219.601 361.866 206.249 353.099 201.252C348.888 198.853 344.991 198.768 341.869 200.565L336.234 203.765L335.919 203.953C335.668 204.089 335.426 204.24 335.193 204.405C334.731 204.718 334.296 205.071 333.895 205.458L333.704 205.637C333.532 205.807 333.35 206.004 333.188 206.192C333.026 206.381 332.777 206.672 332.586 206.926C332.181 207.452 331.814 208.005 331.488 208.582C331.316 208.874 331.154 209.185 331.001 209.523L281.792 181.539L275.813 184.936V188.7L276.32 188.982L276.797 189.255V190.008L275.842 190.563V192.746L283.071 207.801L290.214 211.876L292.592 209.053L298.895 212.77L302.514 218.877L306.506 221.144L311.501 216.778L317.632 220.269L319.694 228.653L329.998 234.525C330.508 236.659 331.145 238.761 331.908 240.82C331.975 241.027 332.061 241.243 332.147 241.478C335.566 250.323 341 257.898 347.13 261.389C347.865 261.819 348.635 262.187 349.432 262.49C349.853 262.655 350.284 262.797 350.721 262.914C351.103 263.014 351.485 263.099 351.867 263.168C353.073 263.384 354.309 263.384 355.515 263.168L356.012 263.045C356.249 262.998 356.482 262.932 356.709 262.848L357.244 262.641C357.433 262.573 357.615 262.488 357.788 262.387C357.964 262.311 358.137 262.227 358.304 262.133L358.552 261.982C358.597 261.967 358.639 261.945 358.676 261.916C360.042 261.145 363.403 259.225 364.32 258.717C368.866 256.12 371.807 249.552 371.807 240.265C371.799 237.867 371.611 235.474 371.243 233.104V233.104Z" fill="#09B358"/>
<path d="M355.582 244.32C353.213 242.975 351.303 238.985 351.303 235.409C351.303 231.834 353.213 230.018 355.582 231.354C357.95 232.69 359.85 236.689 359.85 240.274C359.85 243.859 357.941 245.666 355.582 244.32ZM365.256 236.501C363.25 223.007 355.887 209.646 347.111 204.659C343.043 202.344 339.28 202.175 336.225 203.765L335.909 203.953C335.659 204.089 335.416 204.24 335.184 204.405C334.721 204.718 334.286 205.071 333.885 205.458L333.694 205.637C333.522 205.807 333.341 206.004 333.178 206.192C333.016 206.381 332.768 206.672 332.577 206.926C332.171 207.452 331.804 208.006 331.478 208.582C331.306 208.874 331.144 209.185 330.991 209.523C330.101 211.342 329.459 213.269 329.081 215.254L275.804 184.936V188.7L276.31 188.982L276.787 189.255V190.008L275.832 190.563V192.746L283.061 207.801L290.205 211.876L292.583 209.053L298.885 212.77L302.505 218.877L306.496 221.144L311.491 216.778L317.622 220.269L319.685 228.653L329.998 234.525C330.507 236.659 331.145 238.761 331.908 240.82C331.975 241.027 332.061 241.243 332.147 241.478C335.566 250.324 340.999 257.898 347.13 261.389C347.865 261.819 348.635 262.187 349.432 262.49C349.853 262.655 350.283 262.797 350.721 262.914C351.103 263.014 351.485 263.099 351.867 263.168C353.073 263.384 354.309 263.384 355.515 263.168L356.011 263.045C356.249 262.998 356.482 262.932 356.709 262.848L357.243 262.641C357.433 262.573 357.615 262.488 357.788 262.387C357.964 262.311 358.136 262.227 358.303 262.133L358.552 261.982C358.597 261.967 358.639 261.945 358.676 261.916C363.03 259.206 365.829 252.732 365.829 243.671C365.812 241.27 365.621 238.874 365.256 236.501V236.501Z" fill="#09B358"/>
<path opacity="0.4" d="M359.851 240.264C359.851 243.85 357.941 245.666 355.582 244.32C353.223 242.974 351.304 238.994 351.304 235.409C351.304 231.824 353.214 230.008 355.582 231.354C356.264 231.763 356.858 232.3 357.33 232.934C357.535 235.258 358.391 237.48 359.803 239.352C359.838 239.655 359.854 239.96 359.851 240.264V240.264Z" fill="black"/>
<path opacity="0.4" d="M371.788 240.255C371.788 249.542 368.846 256.11 364.301 258.707C363.346 259.216 360.022 261.135 358.657 261.907C363.011 259.197 365.81 252.723 365.81 243.661C365.799 241.264 365.614 238.871 365.256 236.501C363.25 223.007 355.887 209.646 347.111 204.659C343.043 202.344 339.281 202.174 336.225 203.765L341.859 200.565C344.982 198.768 348.878 198.853 353.089 201.252C361.866 206.249 369.228 219.601 371.234 233.104C371.597 235.471 371.783 237.861 371.788 240.255V240.255Z" fill="white"/>
<path d="M365.81 243.643C365.81 252.704 363.012 259.178 358.657 261.888C360.023 261.116 363.384 259.197 364.301 258.689C368.847 256.091 371.788 249.524 371.788 240.236C371.788 239.898 371.788 239.549 371.788 239.201L365.81 242.608C365.8 242.974 365.81 243.313 365.81 243.643Z" fill="#09B358"/>
<path opacity="0.1" d="M365.81 243.643C365.81 252.704 363.012 259.178 358.657 261.888C360.023 261.116 363.384 259.197 364.301 258.689C368.847 256.091 371.788 249.524 371.788 240.236C371.788 239.898 371.788 239.549 371.788 239.201L365.81 242.608C365.8 242.974 365.81 243.313 365.81 243.643Z" fill="black"/>
<path opacity="0.15" d="M329.311 219.102V221.012L275.813 190.582L276.797 190.017V189.227L329.311 219.102Z" fill="black"/>
<path opacity="0.15" d="M329.311 219.893V221.013L275.813 190.582L276.797 190.017V190.008L329.311 219.893Z" fill="black"/>
<path opacity="0.15" d="M352.573 258.698C350.546 258.646 348.569 258.065 346.844 257.014C338.125 252.055 331.029 237.301 331.029 224.127C331.029 216.439 333.388 210.7 337.504 208.357C340.369 206.719 343.759 206.926 347.321 208.949C356.03 213.908 363.126 228.71 363.126 241.883C363.126 249.561 360.767 255.311 356.651 257.644C355.41 258.343 354.003 258.706 352.573 258.698ZM341.639 208.215C340.366 208.208 339.114 208.533 338.01 209.156C334.257 211.292 332.013 216.891 332.013 224.118C332.013 236.99 338.889 251.406 347.35 256.186C350.587 258.068 353.653 258.237 356.202 256.788C359.955 254.652 362.199 249.063 362.199 241.836C362.199 228.954 355.324 214.548 346.872 209.759C345.293 208.812 343.487 208.292 341.639 208.253V208.215Z" fill="black"/>
<path opacity="0.4" d="M330.953 209.504C330.063 211.323 329.421 213.25 329.043 215.235L275.766 184.917L281.744 181.52L330.953 209.504Z" fill="white"/>
<path d="M400.198 212.45C402.986 207.246 406.176 195.559 407.761 189.66C410.015 181.285 406.367 176.016 402.222 175.799C399.634 176.194 391.107 206.747 391.107 206.747C390.152 207.491 377.193 213.974 373.029 215.602C372.284 215.879 371.463 215.879 370.718 215.602C368.722 214.887 367.356 215.018 365.399 214.83C363.861 214.68 363.088 214.143 362.887 214.463C362.705 214.86 362.682 215.31 362.821 215.724C362.961 216.137 363.254 216.483 363.642 216.693C364.485 217.177 365.382 217.562 366.316 217.841C364.642 218.342 362.898 218.574 361.149 218.528C357.138 218.444 355.696 220.156 358.81 224.174C360.719 226.677 363.88 227.467 370.938 225.068C372.962 224.372 375.712 223.026 378.281 222.113C383.572 220.231 384.966 220.006 388.996 218.66C394.869 216.703 398.956 214.764 400.198 212.45Z" fill="#FFA8A7"/>
<path d="M400.666 175.009C403.101 175.338 405.441 175.875 406.883 177.832C408.325 179.789 409.48 182.537 408.067 190.017C406.985 195.278 405.536 200.459 403.732 205.524C403.732 205.524 398.059 207.914 392.033 201.855L396.178 186.065C396.178 186.065 396.846 175.799 400.666 175.009Z" fill="#455A64"/>
</svg>
