<svg width="17" height="17" viewBox="0 0 17 17" fill="none" xmlns="http://www.w3.org/2000/svg">
<path d="M8.33203 14.733C10.0294 14.733 11.6573 14.0587 12.8575 12.8585C14.0577 11.6583 14.732 10.0304 14.732 8.33301C14.732 6.63562 14.0577 5.00776 12.8575 3.80752C11.6573 2.60729 10.0294 1.93301 8.33203 1.93301C6.63465 1.93301 5.00678 2.60729 3.80655 3.80752C2.60631 5.00776 1.93203 6.63562 1.93203 8.33301C1.93203 10.0304 2.60631 11.6583 3.80655 12.8585C5.00678 14.0587 6.63465 14.733 8.33203 14.733ZM8.33203 16.333C3.91363 16.333 0.332031 12.7514 0.332031 8.33301C0.332031 3.91461 3.91363 0.333008 8.33203 0.333008C12.7504 0.333008 16.332 3.91461 16.332 8.33301C16.332 12.7514 12.7504 16.333 8.33203 16.333ZM5.84403 9.26901L3.84563 8.64581C3.41363 8.51381 3.41123 8.21621 3.94243 8.00261L11.7288 4.99461C12.1808 4.81061 12.4368 5.04341 12.2904 5.62661L10.9648 11.8826C10.872 12.3282 10.604 12.4346 10.232 12.229L8.19123 10.7186L7.24003 11.637C7.14243 11.7314 7.06323 11.8122 6.91283 11.8322C6.76323 11.853 6.64003 11.8082 6.54963 11.5602L5.85363 9.26341L5.84403 9.26981V9.26901Z" fill="#272B29"/>
</svg>
