<svg width="45" height="34" viewBox="0 0 45 34" fill="none" xmlns="http://www.w3.org/2000/svg">
<path d="M16.6777 27.5003C16.4301 29.2384 15.5636 30.8288 14.2375 31.9794C12.9114 33.1299 11.2146 33.7634 9.45898 33.7634C7.70332 33.7634 6.0066 33.1299 4.68049 31.9794C3.35437 30.8288 2.4879 29.2384 2.24023 27.5003H0.0839844V2.50033C0.0839844 1.94779 0.303478 1.41789 0.694178 1.02719C1.08488 0.636486 1.61478 0.416992 2.16732 0.416992H31.334C31.8865 0.416992 32.4164 0.636486 32.8071 1.02719C33.1978 1.41789 33.4173 1.94779 33.4173 2.50033V8H38.0005L44.5005 15.5V27.5L41.6777 27.5003C41.4301 29.2384 40.5636 30.8288 39.2375 31.9794C37.9114 33.1299 36.2146 33.7634 34.459 33.7634C32.7033 33.7634 31.0066 33.1299 29.6805 31.9794C28.3544 30.8288 27.4879 29.2384 27.2402 27.5003H16.6777ZM31.0005 2H2.00049V25.5L4.25065 21.3545C5.07265 20.5153 6.08524 19.8872 7.20222 19.5235C8.3192 19.1598 9.50751 19.0714 10.666 19.2657C11.8245 19.4601 12.9189 19.9314 13.8561 20.6397C14.7932 21.348 15.5454 22.2722 16.0486 23.3337H27.8694C28.2194 22.5982 28.6881 21.9295 29.2506 21.3545L31.0005 20.1874V2ZM33.5005 19H43.0005V17L37.0005 10H33.4173L33.5005 19ZM34.459 29.5837C35.2881 29.5837 36.0832 29.2543 36.6694 28.6681C37.2557 28.0818 37.585 27.2867 37.585 26.4576C37.585 25.6285 37.2557 24.8334 36.6694 24.2472C36.0832 23.6609 35.2881 23.3316 34.459 23.3316C33.6299 23.3316 32.8348 23.6609 32.2485 24.2472C31.6623 24.8334 31.3329 25.6285 31.3329 26.4576C31.3329 27.2867 31.6623 28.0818 32.2485 28.6681C32.8348 29.2543 33.6299 29.5837 34.459 29.5837ZM12.584 26.4587C12.584 26.0483 12.5032 25.6419 12.3461 25.2628C12.1891 24.8836 11.9589 24.5391 11.6687 24.2489C11.3785 23.9588 11.034 23.7286 10.6549 23.5715C10.2757 23.4145 9.86936 23.3337 9.45898 23.3337C9.0486 23.3337 8.64224 23.4145 8.2631 23.5715C7.88396 23.7286 7.53946 23.9588 7.24927 24.2489C6.95909 24.5391 6.72891 24.8836 6.57186 25.2628C6.41481 25.6419 6.33398 26.0483 6.33398 26.4587C6.33398 27.2875 6.66322 28.0823 7.24927 28.6684C7.83533 29.2544 8.63018 29.5837 9.45898 29.5837C10.2878 29.5837 11.0826 29.2544 11.6687 28.6684C12.2547 28.0823 12.584 27.2875 12.584 26.4587Z" fill="#272B29"/>
</svg>
